<?xml version="1.0" encoding="UTF-8"?><svg id="a" xmlns="http://www.w3.org/2000/svg" viewBox="0 0 462.94 117.39"><defs><style>.b{fill:#272b6a;}.c{fill:#f7941d;}</style></defs><path class="c" d="M80.29,15.32c-2.17-2.11-4.76-3.17-7.75-3.17s-5.7,1.06-7.81,3.17-3.17,4.68-3.17,7.67,1.06,5.66,3.17,7.73c2.11,2.05,4.72,3.09,7.81,3.09s5.7-1.04,7.81-3.09c2.11-2.07,3.19-4.64,3.19-7.73s-1.1-5.56-3.25-7.67Z"/><path class="b" d="M30.48,40.82v-10.82c0-4.54,1.28-7.99,3.87-10.36,2.57-2.37,6.34-3.57,11.3-3.57,3.29,0,6.34,.62,9.12,1.85V2.15c-3.73-1.43-8.05-2.15-13.01-2.15-5.76,0-10.98,1.1-15.62,3.33-4.64,2.21-8.33,5.46-11.06,9.74-2.73,4.26-4.08,9.44-4.08,15.54v12.21H0v14.84H11v59.41H30.48V55.67H62.96v59.41h19.48V40.82H30.48Z"/><path class="b" d="M163.49,46.62c-4.94-5.42-12.43-8.11-22.43-8.11-5.36,0-10.46,1-15.3,3.01s-9.03,5.14-12.53,9.36v-10.06h-18.87V115.08h19.48v-48.57c2.69-4.22,5.98-7.39,9.9-9.52,3.92-2.11,8.09-3.17,12.53-3.17,10.1,0,15.16,5.42,15.16,16.24v45.03h19.48v-46.88c0-8.97-2.47-16.16-7.43-21.58Z"/><path class="b" d="M224.28,76.55l29.55-35.72V14.52l-40.36,49.03-18.73-22.73h-21.66l29.55,35.72-31.7,38.53h21.5l21.04-25.38,21.02,25.38h21.52l-31.72-38.53Z"/><path class="b" d="M263.72,.76V115.08h19.48V.76h-19.48Z"/><path class="b" d="M356.21,46.78c-6.2-5.52-15.72-8.27-28.61-8.27-4.86,0-9.88,.46-15.08,1.39-5.22,.92-9.36,2.11-12.45,3.55v15.32c3.41-1.55,7.31-2.77,11.75-3.65,4.42-.88,8.93-1.32,13.45-1.32,7.21,0,12.45,1.2,15.7,3.57s4.88,6.18,4.88,11.44v2.01c-6.81-3.81-14.9-5.72-24.29-5.72s-17.21,2.31-22.57,6.95c-5.38,4.64-8.05,11.1-8.05,19.35s2.83,14.25,8.51,18.95c5.66,4.68,12.93,7.03,21.8,7.03,5.88,0,10.86-.82,14.94-2.47,4.06-1.65,7.69-4.02,10.9-7.11v7.27h18.41v-45.33c0-9.8-3.11-17.45-9.28-22.97Zm-10.36,46.78c-1.85,3.01-4.54,5.34-8.05,7.05-3.51,1.69-7.41,2.55-11.75,2.55-4.94,0-8.75-.98-11.36-2.95-2.65-1.95-3.94-4.9-3.94-8.81,0-8.05,5.2-12.07,15.62-12.07,7.31,0,13.81,2.01,19.48,6.04v8.19Z"/><path class="b" d="M457.9,57.54c-3.35-6-7.99-10.66-13.91-14.01-5.94-3.35-12.67-5.02-20.2-5.02-5.66,0-11,.8-16,2.39s-9.26,4-12.75,7.19V.76h-19.5V115.08h18.87v-8.67c4.24,3.92,8.63,6.71,13.15,8.43,4.54,1.69,9.96,2.55,16.24,2.55,7.53,0,14.26-1.63,20.2-4.88,5.92-3.25,10.56-7.83,13.91-13.77,3.35-5.92,5.04-12.81,5.04-20.64s-1.69-14.58-5.04-20.56Zm-21.58,37.89c-4.52,4.42-10.3,6.63-17.31,6.63-5.58,0-10.52-1.49-14.84-4.48-4.34-2.99-7.37-7.01-9.12-12.05-1.39-5.04-1.41-10.04,0-15,1.63-5.06,4.66-9.1,9.05-12.15,4.38-3.03,9.34-4.56,14.92-4.56,7.01,0,12.79,2.27,17.31,6.81,4.54,4.54,6.81,10.36,6.81,17.47s-2.27,12.89-6.81,17.33Z"/></svg>